<svg xmlns="http://www.w3.org/2000/svg" width="16" height="16" viewBox="0 0 15 15"><path d="M1.7 15C.8 15 0 14.2 0 13.3V1.7C0 .8.8 0 1.7 0h11.6c.9 0 1.7.8 1.7 1.7v11.6c0 .9-.8 1.7-1.7 1.7H1.7zm-.6-8.7v6.6c0 .5.4.9.9.9h10.8c.5 0 .9-.4.9-.9V6.3l-.2-.3h-1.4l-.3.4c.1.4.2.8.2 1.3 0 2.4-2 4.4-4.5 4.4S3 10.1 3 7.6c0-.4 0-.8.1-1.2L2.9 6H1.4l-.3.3zm6.4-2.2c-1.9 0-3.4 1.5-3.4 3.3s1.5 3.3 3.4 3.3 3.4-1.5 3.4-3.3-1.5-3.3-3.4-3.3zm3.6-2.9c-.5 0-1 .4-1 1v1.7c0 .5.4 1 1 1h1.8c.5 0 1-.4 1-1V2.2c0-.5-.4-1-1-1h-1.8z"/></svg>