<svg xmlns="http://www.w3.org/2000/svg" width="164" height="33.135" viewBox="0 0 410.8 83" class="c-crazy-logo p-global-logo__svg"><path d="M255.3 60.6l40.1-44.7h-36.7V4.8h54.5v11.1l-40 44.7h40v11.1h-58zm139.6 3.2H392v-1.7h7.8v1.7h-2.9v7.9h-2zm6-1.7h3.1l1.9 7.4 1.9-7.4h3v9.5h-1.9v-8l-2.1 8h-1.9l-2.1-8v8h-1.9zM52 27.3c-1.1-7.4-7.9-12.5-16.4-12.5-14.8 0-21 11.8-21 23.5s6.2 23.5 21 23.5c9.7 0 15.2-5.7 18-13.5l12.7 5.3c-6 13.4-15.9 19.9-30.7 19.9C11.8 73.4 0 57.1 0 38.3S13.4 3.1 35.6 3.1c14.9 0 26.3 7 29.9 21.1zm82.3 17.4C137.9 43.5 149 40 149 25c0-11.7-9.3-20.2-25.1-20.2h-31v66.9h14V15.9h13.2c9.7 0 14.3 3.9 14.3 10.1s-5.1 10.1-12.2 10.1h-8.4l20.9 35.7h16.2z" class="c-crazy-logo__elm2"/><path d="M102.5 36h31.7v8.74h-31.7zm273 9v26.7h-14.7V45.3L335.1 4.8h17.2l16 26.9 16.2-26.9h16.7zM196.1 6.7h12.2l24.8 66.7h-14.5z" class="c-crazy-logo__elm2"/><g class="c-crazy-logo__elm3"><path d="M163.2.6h70m-70 1.8h70m-70 1.9h70m-70 1.9h70m-70 1.8h70m-70 3.7h70m-70 3.8h70m-70 3.7h70m-70 3.7h70m-70 3.7h70m-70 3.7h70m-70 3.8h70m-70 3.7h70m-70 3.7h70m-70 3.7h70m-70 3.7h70m-70 3.8h70m-70 3.7h70m-70 3.7h70m-70 3.7h70m-70 3.7h70m-70 3.8h70m-70 3.7h70m-70 1.8h70m-70 1.9h70m-70 1.9h70m-70 1.8h70" class="c-crazy-logo__elm4"/></g></svg>