<svg xmlns="http://www.w3.org/2000/svg" width="11" height="208" viewBox="0 0 11 208"><defs><style>.cls-1{fill-rule:evenodd}</style></defs><path id="CRAZY_CORPORATE_SITE" data-name="CRAZY CORPORATE SITE" class="cls-1" d="M10.721 202.843a4.025 4.025 0 0 0-1.43-3.159l-1.456 1.222a2.514 2.514 0 0 1 .884 1.846c0 1.365-1.119 2.248-3.042 2.248-1.885 0-3-1.027-3-2.275a2.4 2.4 0 0 1 .754-1.677l-1.482-1.222a4.12 4.12 0 0 0-1.261 2.938c0 2.457 1.846 4.615 5.07 4.615 3.273.001 4.963-2.079 4.963-4.536zM2.7 193.34v-1.04c0-1.105.3-1.69 1.209-1.69s1.391.59 1.391 1.69v1.04H2.7zm7.839-5.5L6.7 190a2.863 2.863 0 0 0-2.8-1.664c-2.34 0-3.042 1.716-3.042 3.783v3.549h9.672v-2.328H7.133v-1.118l3.406-1.781v-2.6zm-4.017-6.123l-.822-.207c-.959-.247-2.09-.51-3.1-.741v-.052c.988-.26 2.145-.507 3.107-.767l.819-.208v1.976zm4.017-2.977v-2.44l-9.672 3v2.782l9.672 3v-2.366l-2.223-.559V179.3zm0-5.447v-7.072h-1.95v4.212l-6.331-4.173H.867v6.63h1.924v-3.77l6.344 4.173h1.4zm0-12.935v-2.314H7.12L.867 155.12v2.431l2.145.806c.728.273 1.4.533 2.158.806v.052c-.754.273-1.43.52-2.158.78l-2.145.806v2.47l6.253-2.912h3.419zm.182-18.5a4.025 4.025 0 0 0-1.43-3.159l-1.456 1.222a2.514 2.514 0 0 1 .884 1.846c0 1.366-1.118 2.25-3.042 2.25-1.885 0-3-1.027-3-2.276a2.4 2.4 0 0 1 .754-1.677l-1.482-1.222a4.12 4.12 0 0 0-1.261 2.938c0 2.458 1.846 4.616 5.07 4.616 3.273.004 4.963-2.078 4.963-4.536zm0-11.166c0-2.64-1.9-4.434-5.07-4.434s-4.966 1.794-4.966 4.434 1.794 4.433 4.966 4.433 5.07-1.792 5.07-4.431zm-2 0c0 1.274-1.183 2.054-3.068 2.054s-2.977-.78-2.977-2.054 1.105-2.067 2.977-2.067 3.066.795 3.066 2.069zM2.7 119.54v-1.04c0-1.105.3-1.69 1.209-1.69s1.391.59 1.391 1.69v1.04H2.7zm7.839-5.5L6.7 116.2a2.863 2.863 0 0 0-2.8-1.664c-2.34 0-3.042 1.716-3.042 3.783v3.549h9.672v-2.328H7.133v-1.118l3.406-1.781v-2.6zm0-3.978v-2.327H7.328v-1.131c0-2.041-1.014-3.822-3.315-3.822-2.392 0-3.146 1.755-3.146 3.887v3.393h9.672zm-5.044-2.327H2.7v-.949c0-1.118.338-1.742 1.313-1.742a1.413 1.413 0 0 1 1.482 1.677v1.014zm5.226-13.2c0-2.639-1.9-4.433-5.07-4.433S.685 91.9.685 94.541s1.794 4.433 4.966 4.433 5.07-1.794 5.07-4.433zm-2 0c0 1.274-1.183 2.054-3.068 2.054s-2.977-.78-2.977-2.054 1.105-2.067 2.977-2.067 3.066.799 3.066 2.073zM2.7 83.387v-1.04c0-1.105.3-1.69 1.209-1.69s1.391.585 1.391 1.69v1.04H2.7zm7.839-5.5L6.7 80.046a2.863 2.863 0 0 0-2.8-1.664c-2.34 0-3.042 1.716-3.042 3.783v3.549h9.672v-2.327H7.133v-1.118l3.406-1.781v-2.6zm-4.017-6.122l-.822-.208c-.959-.247-2.09-.507-3.1-.741v-.052c.984-.264 2.141-.507 3.1-.764l.819-.208v1.976zm4.017-2.977v-2.444l-9.672 3v2.782l9.672 3v-2.36l-2.223-.559v-2.86zm0-7.93v-2.327H2.791v-2.626H.867v7.566h1.924v-2.613h7.748zm0-9.048v-6.279h-1.95v3.952H6.535v-3.237h-1.95v3.237H2.791v-3.809H.867v6.136h9.672zm.182-19.37c0-2.34-1.417-3.692-3.029-3.692a2.674 2.674 0 0 0-2.652 1.911l-.481 1.209c-.338.858-.546 1.469-1.079 1.469a.938.938 0 0 1-.806-1.157 3.146 3.146 0 0 1 .741-1.989l-1.456-1.157A4.5 4.5 0 0 0 .685 32.18c0 2.054 1.3 3.51 2.925 3.51a2.833 2.833 0 0 0 2.652-1.963l.52-1.235c.351-.832.533-1.365 1.092-1.365.52 0 .845.4.845 1.261a3.911 3.911 0 0 1-.988 2.353l1.6 1.313a5.413 5.413 0 0 0 1.39-3.614zm-.182-7.9v-2.33H.867v2.327h9.672zm0-9.022v-2.33H2.791v-2.626H.867v7.566h1.924v-2.613h7.748zm0-9.048V.188h-1.95V4.14H6.535V.9h-1.95v3.24H2.791V.331H.867v6.136h9.672z"/></svg>