<svg class="c-svgLogo" xmlns="http://www.w3.org/2000/svg" width="164" height="33.135345666991235" viewBox="0 0 410.8 83"><title>crazy_logo</title><defs><mask id="crazy-logo-clippath"><path d="M186 73.4h-14.6l24.8-66.7h12.2z" class="c-crazy-logo__elm1"></path></mask></defs> <path d="M255.3 60.6l40.1-44.7h-36.7V4.8h54.5v11.1l-40 44.7h40v11.1h-58zM394.9 63.8H392v-1.7h7.8v1.7h-2.9v7.9h-2zM400.9 62.1h3.1l1.9 7.4 1.9-7.4h3v9.5h-1.9v-8l-2.1 8h-1.9l-2.1-8v8h-1.9zM52 27.3c-1.1-7.4-7.9-12.5-16.4-12.5-14.8 0-21 11.8-21 23.5s6.2 23.5 21 23.5c9.7 0 15.2-5.7 18-13.5l12.7 5.3c-6 13.4-15.9 19.9-30.7 19.9C11.8 73.4 0 57.1 0 38.3S13.4 3.1 35.6 3.1c14.9 0 26.3 7 29.9 21.1zM134.3 44.7C137.9 43.5 149 40 149 25c0-11.7-9.3-20.2-25.1-20.2h-31v66.9h14V15.9h13.2c9.7 0 14.3 3.9 14.3 10.1s-5.1 10.1-12.2 10.1h-8.4l20.9 35.7h16.2z" class="c-crazy-logo__elm2"></path> <path d="M102.5 36h31.7v8.74h-31.7zM375.5 45v26.7h-14.7V45.3L335.1 4.8h17.2l16 26.9 16.2-26.9h16.7zM196.1 6.7h12.2l24.8 66.7h-14.5z" class="c-crazy-logo__elm2"></path> <g class="c-crazy-logo__elm3"><path d="M163.2.6h70M163.2 2.4h70M163.2 4.3h70M163.2 6.2h70M163.2 8h70M163.2 11.7h70M163.2 15.5h70M163.2 19.2h70M163.2 22.9h70M163.2 26.6h70M163.2 30.3h70M163.2 34.1h70M163.2 37.8h70M163.2 41.5h70M163.2 45.2h70M163.2 48.9h70M163.2 52.7h70M163.2 56.4h70M163.2 60.1h70M163.2 63.8h70M163.2 67.5h70M163.2 71.3h70M163.2 75h70M163.2 76.8h70M163.2 78.7h70M163.2 80.6h70M163.2 82.4h70" class="c-crazy-logo__elm4"></path></g></svg>
